<?xml version="1.0" encoding="utf-8"?>

<svg
	version="1.1"
	id="layer"
	xmlns="http://www.w3.org/2000/svg"
	xmlns:xlink="http://www.w3.org/1999/xlink"
	x="0px"
	y="0px"
	viewBox="0 0 40 40"
	style="enable-background:new 0 0 40 40;"
	xml:space="preserve"
	width="current"
	height="current"
>
	<g>
		<path
			d="M20,0C9,0,0,9,0,20c0,3.5,0.9,6.7,2.4,9.6C2.7,30,3,30.5,3.3,31c0.1,0.1,0.2,0.3,0.3,0.4c0.3,0.4,0.5,0.8,0.8,1.1c0.1,0.1,0.1,0.2,0.2,0.2C5,33.2,5.3,33.6,5.7,34c0.1,0.1,0.2,0.2,0.3,0.3c0.3,0.3,0.7,0.6,1,0.9c0.1,0.1,0.2,0.2,0.3,0.3c0.4,0.4,0.9,0.7,1.3,1c0.1,0.1,0.2,0.2,0.4,0.2c0.4,0.3,0.8,0.5,1.2,0.7c0.1,0.1,0.2,0.1,0.4,0.2c0.5,0.3,1,0.5,1.5,0.7c0.1,0,0.2,0.1,0.3,0.1c0.4,0.2,0.9,0.3,1.4,0.5c0.1,0,0.3,0.1,0.4,0.1c0.6,0.2,1.1,0.3,1.7,0.4c0.1,0,0.1,0,0.2,0c0.5,0.1,1,0.2,1.6,0.2c0.2,0,0.3,0,0.5,0C18.8,40,19.4,40,20,40s1.2,0,1.8-0.1c0.2,0,0.3,0,0.5,0c0.5-0.1,1-0.1,1.6-0.2c0.1,0,0.1,0,0.2,0c0.6-0.1,1.1-0.3,1.7-0.4c0.1,0,0.3-0.1,0.4-0.1c0.5-0.1,0.9-0.3,1.4-0.5c0.1,0,0.2-0.1,0.3-0.1c0.5-0.2,1-0.5,1.5-0.7c0.1-0.1,0.2-0.1,0.4-0.2c0.4-0.2,0.8-0.5,1.2-0.7c0.1-0.1,0.2-0.2,0.4-0.2c0.5-0.3,0.9-0.6,1.3-1c0.1-0.1,0.2-0.2,0.3-0.3c0.3-0.3,0.7-0.6,1-0.9c0.1-0.1,0.2-0.2,0.3-0.3c0.4-0.4,0.8-0.8,1.1-1.2c0.1-0.1,0.1-0.2,0.2-0.2c0.3-0.4,0.6-0.7,0.8-1.1c0.1-0.1,0.2-0.3,0.3-0.4c0.3-0.5,0.6-0.9,0.9-1.4c1.5-2.8,2.4-6.1,2.4-9.6C40,9,31,0,20,0z M32.5,30c-0.2,0.2-0.3,0.4-0.5,0.6c-0.2,0.2-0.4,0.5-0.6,0.7c-0.2,0.2-0.4,0.3-0.6,0.5c-0.4,0.4-0.8,0.7-1.2,1c-0.2,0.2-0.5,0.4-0.7,0.5c-0.2,0.1-0.4,0.3-0.7,0.4c-0.3,0.2-0.5,0.3-0.8,0.5c-0.2,0.1-0.4,0.2-0.6,0.3c-0.3,0.1-0.6,0.3-0.9,0.4c-0.2,0.1-0.4,0.2-0.6,0.2c-0.3,0.1-0.7,0.2-1.1,0.3c-0.2,0.1-0.4,0.1-0.6,0.2c-0.4,0.1-0.8,0.2-1.2,0.2c-0.2,0-0.3,0.1-0.5,0.1C21.2,36,20.6,36,20,36s-1.2,0-1.8-0.1c-0.2,0-0.3-0.1-0.5-0.1c-0.4-0.1-0.8-0.1-1.2-0.2c-0.2,0-0.4-0.1-0.6-0.2c-0.4-0.1-0.7-0.2-1.1-0.3c-0.2-0.1-0.4-0.1-0.6-0.2c-0.3-0.1-0.6-0.3-0.9-0.4c-0.2-0.1-0.4-0.2-0.6-0.3c-0.3-0.1-0.6-0.3-0.8-0.5c-0.2-0.1-0.4-0.3-0.7-0.4c-0.2-0.2-0.5-0.3-0.7-0.5c-0.4-0.3-0.8-0.7-1.2-1c-0.2-0.2-0.4-0.3-0.6-0.5c-0.2-0.2-0.4-0.4-0.6-0.7c-0.2-0.2-0.3-0.4-0.5-0.6c-0.1-0.1-0.1-0.2-0.2-0.3C9.6,27.4,12.7,26,16,26h8c3.3,0,6.4,1.4,8.7,3.7C32.6,29.8,32.5,29.9,32.5,30z M34.8,26.2C31.9,23.6,28.1,22,24,22h-8c-4.1,0-7.9,1.6-10.8,4.2C4.4,24.3,4,22.2,4,20c0-8.8,7.2-16,16-16s16,7.2,16,16C36,22.2,35.6,24.3,34.8,26.2z"
			fill="current"
		/>
		<path
			d="M20,6c-3.9,0-7,3.1-7,7s3.1,7,7,7s7-3.1,7-7S23.9,6,20,6z M20,16c-1.7,0-3-1.3-3-3s1.3-3,3-3s3,1.3,3,3S21.7,16,20,16z"
			fill="current"
		/>
	</g>
</svg>